<svg viewBox="0 0 983 1466" fill="none" xmlns="http://www.w3.org/2000/svg">
<path d="M902.798 1062.5C923.946 1061.67 944.196 1053.73 960.269 1039.96C962.457 1038.36 965.058 1037.42 967.763 1037.26C970.469 1037.09 973.166 1037.7 975.536 1039.01C977.906 1040.33 979.85 1042.29 981.138 1044.68C982.426 1047.06 983.005 1049.77 982.806 1052.47C973.678 1157.27 899.643 1268.83 827.298 1335.43C776.937 1382.4 717.264 1418.26 652.151 1440.69C587.037 1463.12 517.937 1471.61 449.331 1465.61C380.724 1459.62 314.144 1439.27 253.908 1405.89C193.672 1372.51 141.124 1326.84 99.6725 1271.84C58.2211 1216.85 28.7918 1153.75 13.2929 1086.65C-2.20602 1019.55 -3.42845 949.941 9.70491 882.337C22.8383 814.733 50.0342 750.645 89.5289 694.228C129.024 637.81 179.936 590.324 238.963 554.848C251.97 545.846 265.56 537.714 279.643 530.508C282.133 529.391 284.892 529.016 287.59 529.426C290.288 529.837 292.811 531.017 294.856 532.824C296.901 534.631 298.381 536.989 299.121 539.616C299.86 542.243 299.827 545.028 299.025 547.636C296.32 556.651 293.165 565.441 290.46 574.118C280.394 602.623 274.105 632.325 271.754 662.464C269.568 692.885 279.491 722.938 299.363 746.077C330.239 778.531 372.834 776.84 407.992 751.26C501.86 682.747 452.053 572.202 410.471 489.941L409.683 488.814L408.781 487.236C388.723 447.796 370.355 416.582 367.313 411.399C366.984 410.949 366.718 410.456 366.524 409.934C365.172 406.891 363.819 403.849 362.58 400.806C323.256 312.742 317.564 213.321 346.578 121.344C356.269 92.4963 378.581 32.0965 407.654 4.15027C409.501 2.34949 411.803 1.08573 414.313 0.494616C416.824 -0.0964986 419.448 0.00741558 421.904 0.795177C424.36 1.58294 426.555 3.02476 428.253 4.96589C429.952 6.90702 431.089 9.2741 431.544 11.8129C437.967 46.2949 454.081 111.315 456.898 119.428C469.004 161.146 488.718 200.267 515.044 234.819C579.276 316.066 681.708 353.591 754.954 426.386C850.737 521.268 876.655 651.759 860.316 782.362C855.993 816.799 848.447 850.753 837.778 883.78C827.975 914.205 811.184 941.588 811.297 973.929C811.997 994.182 819.319 1013.65 832.142 1029.34C844.966 1045.03 862.581 1056.09 882.289 1060.81C888.792 1062.3 895.453 1062.98 902.122 1062.84L902.798 1062.5Z" fill="#EF4846"/>
<path d="M504.79 940.686C524.007 940.291 542.87 945.883 558.767 956.688C566.993 961.984 571.162 965.59 578.374 965.59C580.831 965.665 583.279 965.255 585.577 964.384C587.875 963.513 589.979 962.197 591.769 960.512C593.558 958.827 594.998 956.806 596.006 954.564C597.014 952.323 597.571 949.904 597.643 947.447C597.643 923.107 551.442 902.936 504.339 902.936C424.67 902.936 386.244 955.223 386.244 1034.89V1145.55C386.244 1225.22 424.895 1277.39 504.565 1277.39C551.667 1277.39 597.193 1257.22 597.193 1232.99C597.255 1230.59 596.828 1228.21 595.938 1225.98C595.048 1223.75 593.714 1221.72 592.017 1220.03C590.32 1218.33 588.295 1217 586.066 1216.11C583.837 1215.22 581.45 1214.79 579.05 1214.85C571.838 1214.85 569.472 1218.46 560.682 1223.64C543.944 1234.53 524.304 1240.11 504.339 1239.64C445.855 1239.64 422.529 1203.47 422.529 1145.55V1034.89C422.529 976.971 446.08 940.686 504.452 940.686" fill="#FFFFFF"/>
</svg>
